<?xml version="1.0" standalone="no"?>
<!DOCTYPE svg PUBLIC "-//W3C//DTD SVG 20010904//EN"
 "http://www.w3.org/TR/2001/REC-SVG-20010904/DTD/svg10.dtd">
<svg version="1.0" xmlns="http://www.w3.org/2000/svg"
 width="840.000000pt" height="838.000000pt" viewBox="0 0 840.000000 838.000000"
 preserveAspectRatio="xMidYMid meet">

<g transform="translate(0.000000,838.000000) scale(0.100000,-0.100000)"
fill="#000000" stroke="none">
<path d="M3450 7969 c-41 -5 -95 -16 -120 -24 -160 -54 -331 -226 -391 -395
-21 -58 -24 -83 -24 -225 0 -182 10 -219 88 -337 51 -78 312 -340 470 -471
328 -274 638 -477 728 -477 105 0 525 288 850 583 246 223 376 379 420 502 26
73 37 263 20 343 -24 112 -102 242 -204 338 -133 127 -244 167 -462 167 -90 0
-150 -5 -195 -17 -185 -47 -348 -183 -396 -330 -22 -67 -31 -75 -45 -40 -50
120 -63 141 -133 209 -119 117 -242 166 -446 178 -47 3 -119 1 -160 -4z"/>
<path d="M5170 5939 c-561 -52 -1083 -267 -1518 -627 -55 -45 -158 -142 -229
-215 -428 -441 -694 -996 -775 -1617 -17 -127 -16 -529 1 -650 44 -323 131
-610 263 -874 67 -134 200 -355 233 -389 36 -35 79 -35 209 -3 151 39 493 183
503 212 2 6 -17 40 -42 75 -184 261 -268 410 -339 600 -78 210 -114 399 -123
634 -24 668 266 1286 807 1718 232 186 537 328 830 387 278 57 666 42 969 -36
354 -92 704 -301 971 -580 532 -556 698 -1394 424 -2133 -44 -116 -138 -304
-203 -403 -103 -158 -351 -419 -511 -539 -170 -127 -410 -246 -634 -313 -145
-44 -240 -63 -410 -80 l-139 -15 -81 -78 c-278 -267 -342 -325 -481 -430 -120
-91 -130 -102 -112 -120 16 -17 219 -51 382 -64 163 -14 531 -5 685 16 131 19
330 68 475 119 396 138 726 348 1040 661 420 419 656 848 780 1421 33 152 45
293 45 539 0 348 -24 530 -101 785 -195 645 -596 1185 -1154 1553 -146 96
-438 241 -598 297 -379 132 -785 184 -1167 149z"/>
<path d="M2675 5929 c-493 -48 -971 -243 -1395 -569 -115 -89 -371 -343 -464
-460 -418 -530 -633 -1164 -612 -1810 13 -429 103 -786 290 -1159 556 -1108
1738 -1711 2956 -1509 431 71 838 244 1185 503 127 96 332 289 461 435 343
390 575 911 651 1460 21 156 24 518 5 670 -56 438 -197 821 -444 1202 l-70
108 -42 -6 c-228 -31 -646 -194 -646 -252 0 -9 38 -69 85 -132 186 -253 309
-525 374 -825 35 -163 44 -275 38 -488 -5 -172 -10 -223 -36 -348 -94 -451
-309 -812 -685 -1151 -142 -128 -253 -202 -441 -293 -315 -155 -599 -214 -959
-202 -221 7 -370 34 -581 103 -543 179 -988 562 -1225 1057 -78 161 -124 300
-161 477 -25 121 -31 177 -36 340 -4 125 -1 233 6 300 82 712 516 1333 1146
1640 207 100 479 179 695 200 63 6 131 14 150 16 28 5 64 35 195 163 189 187
273 259 418 365 59 43 107 82 107 87 0 4 -8 12 -17 17 -23 12 -231 48 -355 62
-110 11 -472 11 -593 -1z"/>
</g>
</svg>
